<svg xmlns="http://www.w3.org/2000/svg" width="25" height="25" viewBox="0 0 25 25" fill="none">
<path d="M15.7685 17.0924H20.7685L19.3635 15.6874C19.1748 15.4987 19.0252 15.2746 18.9231 15.0281C18.821 14.7815 18.7685 14.5172 18.7685 14.2504V11.0924C18.7686 9.85131 18.3841 8.64072 17.6677 7.62726C16.9514 6.61381 15.9385 5.84734 14.7685 5.43338V5.09238C14.7685 4.56194 14.5578 4.05324 14.1827 3.67816C13.8076 3.30309 13.2989 3.09238 12.7685 3.09238C12.2381 3.09238 11.7294 3.30309 11.3543 3.67816C10.9792 4.05324 10.7685 4.56194 10.7685 5.09238V5.43338C8.43849 6.25738 6.76849 8.48038 6.76849 11.0924V14.2514C6.76849 14.7894 6.55449 15.3064 6.17349 15.6874L4.76849 17.0924H9.76849M15.7685 17.0924V18.0924C15.7685 18.888 15.4524 19.6511 14.8898 20.2137C14.3272 20.7763 13.5641 21.0924 12.7685 21.0924C11.9728 21.0924 11.2098 20.7763 10.6472 20.2137C10.0846 19.6511 9.76849 18.888 9.76849 18.0924V17.0924M15.7685 17.0924H9.76849" stroke="black" stroke-width="2" stroke-linecap="round" stroke-linejoin="round"/>
</svg>