<svg width="24" height="24" viewBox="0 0 24 24" fill="none" xmlns="http://www.w3.org/2000/svg">
<path fill-rule="evenodd" clip-rule="evenodd" d="M8.75 2.75C8.75 2.33579 8.41421 2 8 2C7.58579 2 7.25 2.33579 7.25 2.75V4L6 4C3.92893 4 2.25 5.67893 2.25 7.75L2.25 18.75C2.25 20.8211 3.92893 22.5 6 22.5L18 22.5C20.0711 22.5 21.75 20.8211 21.75 18.75L21.75 7.75C21.75 5.67893 20.0711 4 18 4L16.75 4V2.75C16.75 2.33579 16.4142 2 16 2C15.5858 2 15.25 2.33579 15.25 2.75V4L8.75 4V2.75ZM16 5.5L8 5.5L6 5.5C4.75736 5.5 3.75 6.50736 3.75 7.75L3.75 18.75C3.75 19.9926 4.75736 21 6 21L18 21C19.2426 21 20.25 19.9926 20.25 18.75L20.25 7.75C20.25 6.50736 19.2426 5.5 18 5.5L16 5.5ZM18.75 8.75C18.75 9.16421 18.4142 9.5 18 9.5L6 9.5C5.58579 9.5 5.25 9.16421 5.25 8.75C5.25 8.33579 5.58579 8 6 8L18 8C18.4142 8 18.75 8.33579 18.75 8.75ZM8 17.75C8 18.3023 7.55228 18.75 7 18.75C6.44772 18.75 6 18.3023 6 17.75C6 17.1977 6.44772 16.75 7 16.75C7.55228 16.75 8 17.1977 8 17.75ZM12 18.75C12.5523 18.75 13 18.3023 13 17.75C13 17.1977 12.5523 16.75 12 16.75C11.4477 16.75 11 17.1977 11 17.75C11 18.3023 11.4477 18.75 12 18.75ZM18 17.75C18 18.3023 17.5523 18.75 17 18.75C16.4477 18.75 16 18.3023 16 17.75C16 17.1977 16.4477 16.75 17 16.75C17.5523 16.75 18 17.1977 18 17.75ZM7 14.75C7.55228 14.75 8 14.3023 8 13.75C8 13.1977 7.55228 12.75 7 12.75C6.44772 12.75 6 13.1977 6 13.75C6 14.3023 6.44772 14.75 7 14.75ZM13 13.75C13 14.3023 12.5523 14.75 12 14.75C11.4477 14.75 11 14.3023 11 13.75C11 13.1977 11.4477 12.75 12 12.75C12.5523 12.75 13 13.1977 13 13.75ZM17 14.75C17.5523 14.75 18 14.3023 18 13.75C18 13.1977 17.5523 12.75 17 12.75C16.4477 12.75 16 13.1977 16 13.75C16 14.3023 16.4477 14.75 17 14.75Z" fill="#000"/>
</svg>
