<svg width="24" height="24" viewBox="0 0 24 24" fill="none" xmlns="http://www.w3.org/2000/svg">
<path fill-rule="evenodd" clip-rule="evenodd" d="M12 3.75C7.44365 3.75 3.75 7.44365 3.75 12C3.75 16.5563 7.44365 20.25 12 20.25C16.5563 20.25 20.25 16.5563 20.25 12C20.25 7.44365 16.5563 3.75 12 3.75ZM2.25 12C2.25 6.61522 6.61522 2.25 12 2.25C17.3848 2.25 21.75 6.61522 21.75 12C21.75 17.3848 17.3848 21.75 12 21.75C6.61522 21.75 2.25 17.3848 2.25 12ZM12 6.75C12.4142 6.75 12.75 7.08579 12.75 7.5L12.75 11.6893L15.5303 14.4697C15.8232 14.7626 15.8232 15.2374 15.5303 15.5303C15.2374 15.8232 14.7626 15.8232 14.4697 15.5303L11.4718 12.5325C11.4645 12.5252 11.4573 12.5178 11.4502 12.5102C11.3907 12.446 11.3444 12.374 11.3114 12.2976C11.2719 12.2064 11.25 12.1057 11.25 12L11.25 7.5C11.25 7.08579 11.5858 6.75 12 6.75Z" fill="#000"/>
</svg>
