<svg width="24" height="24" viewBox="0 0 24 24" fill="none" xmlns="http://www.w3.org/2000/svg">
<path fill-rule="evenodd" clip-rule="evenodd" d="M18 5.5H6C4.61929 5.5 3.5 6.61929 3.5 8V16C3.5 17.3807 4.61929 18.5 6 18.5H18C19.3807 18.5 20.5 17.3807 20.5 16V8C20.5 6.61929 19.3807 5.5 18 5.5ZM6 4C3.79086 4 2 5.79086 2 8V16C2 18.2091 3.79086 20 6 20H18C20.2091 20 22 18.2091 22 16V8C22 5.79086 20.2091 4 18 4H6Z" fill="#141416"/>
<path fill-rule="evenodd" clip-rule="evenodd" d="M8.46967 9.46967C8.76256 9.17678 9.23744 9.17678 9.53033 9.46967L12 11.9393L14.4697 9.46967C14.7626 9.17678 15.2374 9.17678 15.5303 9.46967C15.8232 9.76256 15.8232 10.2374 15.5303 10.5303L12.5303 13.5303C12.2374 13.8232 11.7626 13.8232 11.4697 13.5303L8.46967 10.5303C8.17678 10.2374 8.17678 9.76256 8.46967 9.46967Z" fill="#141416"/>
</svg>
