<svg width="24" height="24" viewBox="0 0 24 24" fill="none" xmlns="http://www.w3.org/2000/svg">
<circle cx="12" cy="15" r="7" fill="#3757FF"/>
<path fill-rule="evenodd" clip-rule="evenodd" d="M4.25 15C4.25 10.7198 7.71979 7.25 12 7.25C16.2802 7.25 19.75 10.7198 19.75 15C19.75 19.2802 16.2802 22.75 12 22.75C7.71979 22.75 4.25 19.2802 4.25 15ZM12 8.75C8.54822 8.75 5.75 11.5482 5.75 15C5.75 18.4518 8.54822 21.25 12 21.25C15.4518 21.25 18.25 18.4518 18.25 15C18.25 11.5482 15.4518 8.75 12 8.75Z" fill="#3757FF"/>
<path fill-rule="evenodd" clip-rule="evenodd" d="M12 13.25C12.4142 13.25 12.75 13.5858 12.75 14V16C12.75 16.4142 12.4142 16.75 12 16.75C11.5858 16.75 11.25 16.4142 11.25 16V14C11.25 13.5858 11.5858 13.25 12 13.25Z" fill="white"/>
<path fill-rule="evenodd" clip-rule="evenodd" d="M12 2.75C10.2051 2.75 8.75 4.20507 8.75 6V9C8.75 9.41421 8.41421 9.75 8 9.75C7.58579 9.75 7.25 9.41421 7.25 9V6C7.25 3.37665 9.37665 1.25 12 1.25C14.6234 1.25 16.75 3.37665 16.75 6V9C16.75 9.41421 16.4142 9.75 16 9.75C15.5858 9.75 15.25 9.41421 15.25 9V6C15.25 4.20507 13.7949 2.75 12 2.75Z" fill="#3757FF"/>
</svg>
