<svg width="24" height="24" viewBox="0 0 24 24" fill="none" xmlns="http://www.w3.org/2000/svg">
<path fill-rule="evenodd" clip-rule="evenodd" d="M12 3.25C10.2051 3.25 8.75 4.70507 8.75 6.5C8.75 8.29493 10.2051 9.75 12 9.75C13.7949 9.75 15.25 8.29493 15.25 6.5C15.25 4.70507 13.7949 3.25 12 3.25ZM7.25 6.5C7.25 3.87665 9.37665 1.75 12 1.75C14.6234 1.75 16.75 3.87665 16.75 6.5C16.75 9.12335 14.6234 11.25 12 11.25C9.37665 11.25 7.25 9.12335 7.25 6.5Z" fill="#000"/>
<path fill-rule="evenodd" clip-rule="evenodd" d="M3.25 19.6538C3.25 15.841 6.34096 12.75 10.1538 12.75H13.8462C17.659 12.75 20.75 15.841 20.75 19.6538C20.75 21.0877 19.5877 22.25 18.1538 22.25H5.84615C4.41234 22.25 3.25 21.0877 3.25 19.6538ZM10.1538 14.25C7.16938 14.25 4.75 16.6694 4.75 19.6538C4.75 20.2592 5.24076 20.75 5.84615 20.75H18.1538C18.7592 20.75 19.25 20.2592 19.25 19.6538C19.25 16.6694 16.8306 14.25 13.8462 14.25H10.1538Z" fill="#000"/>
</svg>
