<svg width="24" height="24" viewBox="0 0 24 24" fill="none" xmlns="http://www.w3.org/2000/svg">
<path fill-rule="evenodd" clip-rule="evenodd" d="M18.5894 4.99753C20.053 7.63201 19.5928 10.9175 17.4618 13.0486L12.5485 17.9618C10.4175 20.0929 7.13197 20.553 4.49748 19.0894L4.40758 19.0395C2.81046 18.1522 2.50664 15.9829 3.79856 14.691L5.06215 13.4274C5.95443 12.5351 7.33949 12.3646 8.42155 13.0139L8.60954 13.1266C9.49486 13.6578 10.6281 13.5183 11.3581 12.7883L12.2882 11.8582C13.0183 11.1281 13.1578 9.9949 12.6266 9.10958L12.5138 8.9216C11.8646 7.83954 12.0351 6.45448 12.9274 5.56219L14.191 4.2986C15.4829 3.00669 17.6521 3.31051 18.5394 4.90763L18.5894 4.99753ZM16.4011 11.9879C18.0586 10.3305 18.4165 7.77503 17.2781 5.72599L17.2282 5.63609C16.8249 4.91013 15.8389 4.77203 15.2516 5.35926L13.988 6.62285C13.5824 7.02844 13.5049 7.65801 13.8 8.14985L13.9128 8.33784C14.7982 9.81337 14.5656 11.7021 13.3489 12.9188L12.4188 13.8489C11.202 15.0657 9.31333 15.2982 7.83779 14.4129L7.64981 14.3001C7.15796 14.005 6.52839 14.0825 6.12281 14.4881L4.85922 15.7517C4.27198 16.3389 4.41008 17.3249 5.13605 17.7282L5.22595 17.7782C7.27499 18.9165 9.83041 18.5586 11.4879 16.9012L16.4011 11.9879Z" fill="#141416"/>
</svg>
